<svg version="1.1" id="Layer_1" xmlns="http://www.w3.org/2000/svg" xmlns:xlink="http://www.w3.org/1999/xlink" x="0px" y="0px"
	 viewBox="0 0 1200 800" style="enable-background:new 0 0 1200 800;" xml:space="preserve">

<path class="st0" d="M359.5,294c-18.2,0-33-14.8-33-33s14.8-33,33-33"/>
<path class="st0" d="M1059.5,450c-18.2,0-33-14.8-33-33s14.8-33,33-33"/>
<path class="st0" d="M802.5,260c-18.2,0-33-14.8-33-33s14.8-33,33-33"/>
<path class="st0" d="M870.3,373.7c-17.3,0-31.3-14.1-31.3-31.3c0-17.3,14.1-31.3,31.3-31.3c17.3,0,31.3,14.1,31.3,31.3
	C901.7,359.6,887.6,373.7,870.3,373.7z M870.3,319c-12.9,0-23.3,10.5-23.3,23.3c0,12.9,10.5,23.3,23.3,23.3
	c12.9,0,23.3-10.5,23.3-23.3C893.7,329.5,883.2,319,870.3,319z"/>
<path class="st0" d="M165.3,223.7c-17.3,0-31.3-14.1-31.3-31.3c0-17.3,14.1-31.3,31.3-31.3c17.3,0,31.3,14.1,31.3,31.3
	C196.7,209.6,182.6,223.7,165.3,223.7z M165.3,169c-12.9,0-23.3,10.5-23.3,23.3c0,12.9,10.5,23.3,23.3,23.3
	c12.9,0,23.3-10.5,23.3-23.3C188.7,179.5,178.2,169,165.3,169z"/>
<polygon class="st0" points="318.7,126.3 268.3,96.8 319.1,67.9 "/>
<polygon class="st0" points="52,299.1 25.8,283.7 52.2,268.7 "/>
<path class="st0" d="M859.4,553.4l-74.5-43.7L860,467L859.4,553.4z M802.9,509.8l47.6,27.9l0.4-55.2L802.9,509.8z"/>
<rect x="443" y="176.7" class="st0" width="70.7" height="16.1"/>
<rect x="613" y="685.7" class="st0" width="70.7" height="16.1"/>
<path class="st0" d="M171.2,602.2c-7,0-10.5-4.6-13.1-8c-2.5-3.3-3.6-4.5-5.9-4.5c-2.3,0-3.5,1.2-5.9,4.5c-2.6,3.4-6.1,8-13.1,8
	c-7,0-10.5-4.6-13.1-8c-2.5-3.3-3.6-4.5-5.9-4.5c-2.3,0-3.5,1.2-5.9,4.5c-2.6,3.4-6.1,8-13.1,8s-10.5-4.6-13.1-8
	c-2.5-3.3-3.6-4.5-5.9-4.5s-3.5,1.2-5.9,4.5c-2.6,3.4-6.1,8-13.1,8c-7,0-10.5-4.6-13.1-8c-2.5-3.3-3.6-4.5-5.9-4.5v-9
	c7,0,10.5,4.6,13.1,8c2.5,3.3,3.6,4.5,5.9,4.5c2.3,0,3.5-1.2,5.9-4.5c2.6-3.4,6.1-8,13.1-8s10.5,4.6,13.1,8c2.5,3.3,3.6,4.5,5.9,4.5
	s3.5-1.2,5.9-4.5c2.6-3.4,6.1-8,13.1-8s10.5,4.6,13.1,8c2.5,3.3,3.6,4.5,5.9,4.5c2.3,0,3.5-1.2,5.9-4.5c2.6-3.4,6.1-8,13.1-8
	c7,0,10.5,4.6,13.1,8c2.5,3.3,3.6,4.5,5.9,4.5V602.2z"/>
<path class="st0" d="M1149.1,193.5c-5,4.8-10.8,3.9-15,3.2c-4-0.6-5.7-0.7-7.4,0.9c-1.7,1.6-1.7,3.3-1.2,7.4
	c0.5,4.2,1.1,10-3.9,14.9c-5,4.8-10.8,3.9-15,3.2c-4-0.6-5.7-0.7-7.4,0.9c-1.7,1.6-1.7,3.3-1.2,7.4c0.5,4.2,1.1,10-3.9,14.9
	c-5,4.8-10.8,3.9-15,3.2c-4-0.6-5.7-0.7-7.4,0.9c-1.7,1.6-1.7,3.3-1.2,7.4c0.5,4.2,1.1,10-3.9,14.9c-5,4.8-10.8,3.9-15,3.2
	c-4-0.6-5.7-0.7-7.4,0.9l-6.2-6.5c5-4.8,10.8-3.9,15-3.2c4,0.6,5.7,0.7,7.4-0.9c1.7-1.6,1.7-3.3,1.2-7.4c-0.5-4.2-1.1-10,3.9-14.9
	c5-4.8,10.8-3.9,15-3.2c4,0.6,5.7,0.7,7.4-0.9c1.7-1.6,1.7-3.3,1.2-7.4c-0.5-4.2-1.1-10,3.9-14.9c5-4.8,10.8-3.9,15-3.2
	c4,0.6,5.7,0.7,7.4-0.9c1.7-1.6,1.7-3.3,1.2-7.4c-0.5-4.2-1.1-10,3.9-14.9c5-4.8,10.8-3.9,15-3.2c4,0.6,5.7,0.7,7.4-0.9
	L1149.1,193.5z"/>
<circle class="st0" cx="892" cy="210.7" r="9"/>
<circle class="st0" cx="366" cy="698.7" r="11"/>
<circle class="st0" cx="99" cy="443.7" r="9"/>
<circle class="st0" cx="964" cy="109" r="9"/>
<circle class="st0" cx="495" cy="599" r="9"/>
<circle class="st0" cx="49" cy="69" r="21"/>
<circle class="st0" cx="655" cy="113" r="21"/>
<circle class="st0" cx="727" cy="599" r="19"/>
<circle class="st0" cx="244" cy="423" r="17"/>
<circle class="st0" cx="1092" cy="680" r="35"/>
</svg>
